<?xml version="1.0" standalone="no"?>
<!DOCTYPE svg PUBLIC "-//W3C//DTD SVG 20010904//EN"
 "http://www.w3.org/TR/2001/REC-SVG-20010904/DTD/svg10.dtd">
<svg version="1.0" xmlns="http://www.w3.org/2000/svg"
 width="442.000000pt" height="442.000000pt" viewBox="0 0 442.000000 442.000000"
 preserveAspectRatio="xMidYMid meet">
<metadata>
Created by potrace 1.11, written by Peter Selinger 2001-2013
</metadata>
<g transform="translate(0.000000,442.000000) scale(0.100000,-0.100000)"
fill="#000000" stroke="none">
<path d="M1193 4142 c-15 -2 -24 -12 -28 -35 -10 -49 -45 -147 -71 -198 -63
-126 -170 -243 -273 -298 -144 -76 -392 -142 -594 -156 -38 -3 -72 -7 -76 -9
-5 -3 -7 -634 -2 -697 1 -14 15 -12 109 11 226 57 326 106 522 253 129 98 384
269 448 301 27 13 65 27 85 31 39 8 87 0 87 -13 0 -7 -370 -380 -413 -417 -7
-6 -46 -38 -87 -71 -93 -75 -248 -238 -349 -364 -42 -52 -82 -101 -88 -108
-14 -14 -253 -334 -293 -392 l-25 -35 0 -532 c0 -293 1 -533 1 -533 3 0 142
186 171 230 72 107 151 245 220 385 109 222 154 308 169 326 8 8 14 19 14 23
0 15 272 440 337 526 6 8 62 83 123 165 234 312 564 677 649 717 42 20 57 15
69 -21 30 -84 -63 -472 -163 -689 -14 -29 -25 -55 -25 -57 0 -2 -37 -80 -83
-172 -113 -228 -156 -341 -263 -693 -54 -179 -114 -365 -154 -480 -26 -74 -72
-207 -103 -295 -30 -88 -87 -251 -126 -362 -39 -111 -71 -204 -71 -207 0 -3
180 -6 400 -6 373 0 401 1 407 18 6 16 35 86 53 127 48 109 213 660 236 790 3
17 14 64 24 105 17 68 54 229 66 290 3 14 18 84 34 155 16 72 31 141 34 155 2
14 23 117 46 230 23 113 48 234 55 269 8 37 14 142 14 240 2 190 5 253 26 463
15 142 36 209 71 222 31 12 70 -44 94 -134 31 -116 236 -648 310 -805 5 -11
27 -60 48 -110 22 -49 49 -110 60 -135 11 -25 25 -67 32 -95 11 -50 15 -189 5
-235 -3 -14 -8 -38 -11 -55 -3 -16 -14 -66 -24 -110 -63 -256 -28 -462 117
-706 l46 -76 131 28 c149 32 175 37 214 44 36 7 166 37 170 40 2 1 -9 53 -53
245 -2 8 -18 74 -35 145 -18 72 -34 139 -36 150 -2 11 -12 53 -22 92 -27 107
-28 175 -2 228 44 91 208 137 394 111 27 -4 53 -9 58 -12 4 -3 16 -7 25 -9 10
-2 56 -17 103 -33 147 -50 129 -56 186 59 l49 101 -45 39 c-110 95 -341 210
-470 234 -14 3 -34 7 -45 9 -11 2 -39 7 -62 11 -49 8 -67 26 -359 361 -159
183 -291 349 -333 418 -43 71 -51 133 -23 160 31 27 83 23 134 -12 90 -62 293
-177 508 -289 217 -113 426 -176 629 -189 47 -3 92 -7 99 -9 9 -4 12 74 12
365 0 289 -3 370 -12 371 -7 0 -22 2 -33 4 -22 4 -145 13 -295 20 -265 13
-380 51 -502 163 -97 90 -178 241 -194 361 -4 28 -12 55 -18 58 -10 7 -1987
11 -2033 5z"/>
</g>
</svg>
