<svg xmlns="http://www.w3.org/2000/svg" viewBox="0 0 46.04 117.24"><defs><style>.cls-1,.cls-2{fill:none;}.cls-1,.cls-2,.cls-3{stroke:#fdc15f;stroke-linejoin:round;stroke-width:5px;}.cls-1{stroke-linecap:round;}.cls-3{fill:#fff;}</style></defs><g id="Layer_2" data-name="Layer 2"><g id="Capa_2" data-name="Capa 2"><polyline class="cls-1" points="23.3 2.5 23.3 97.33 23.3 114.74"/><path class="cls-2" d="M23.3,96.78c0-22.44,20.18-20.26,20.18-20.26S45.75,96.78,23.3,96.78"/><path class="cls-2" d="M23.3,76.32c0-22.45,20.18-20.27,20.18-20.27S45.75,76.32,23.3,76.32"/><path class="cls-2" d="M22.75,96.78c0-22.44-20.19-20.26-20.19-20.26S.3,96.78,22.75,96.78"/><path class="cls-2" d="M22.75,76.32c0-22.45-20.19-20.27-20.19-20.27S.3,76.32,22.75,76.32"/><path class="cls-2" d="M23.3,55.86c0-22.45,20.18-20.27,20.18-20.27S45.75,55.86,23.3,55.86"/><line class="cls-1" x1="43.54" y1="24.65" x2="43.54" y2="36.01"/><path class="cls-2" d="M22.75,55.86c0-22.45-20.19-20.27-20.19-20.27S.3,55.86,22.75,55.86"/><line class="cls-1" x1="2.5" y1="24.65" x2="2.5" y2="36.01"/><path class="cls-3" d="M23.31,39.53c-15.87-15.87-.06-28.6-.06-28.6s15.94,12.73.06,28.6"/></g></g></svg>