<svg xmlns="http://www.w3.org/2000/svg" viewBox="0 0 104.36 104.37"><defs><style>.cls-1{fill:none;stroke:#fdc15f;stroke-linecap:round;stroke-linejoin:round;stroke-width:6.57px;}</style></defs><g id="Layer_2" data-name="Layer 2"><g id="Capa_2" data-name="Capa 2"><path class="cls-1" d="M41.89,57.71l0,.49a92.12,92.12,0,0,1-18-4.12c.05-1.08.07-2.16.07-3.25a84.6,84.6,0,0,0-6.63-32.94A48.74,48.74,0,0,1,52.18,3.29c1.44,0,2.87.06,4.28.18A84.55,84.55,0,0,0,41.66,51.4c0,1.23,0,2.46.07,3.68C41.78,56,41.82,56.83,41.89,57.71Z"/><path class="cls-1" d="M57.49,100.8a49.07,49.07,0,0,1-41-15.16,84.1,84.1,0,0,0,7.37-31.56,92.12,92.12,0,0,0,18,4.12c.1,1.13.21,2.28.34,3.41.06.48.12,1,.19,1.43s.09.68.15,1,.14,1,.23,1.45.12.71.18,1.06c.09.55.2,1.09.31,1.64s.23,1.07.34,1.59a0,0,0,0,1,0,0q.7,3.24,1.67,6.38a84.77,84.77,0,0,0,3.4,9.19c.22.49.44,1,.67,1.47s.45,1,.69,1.47.56,1.16.86,1.73c.41.8.84,1.6,1.27,2.39.29.53.59,1.06.9,1.58L54,95.43c.28.46.55.9.83,1.34s.59.92.9,1.38.59.9.89,1.33S57.18,100.37,57.49,100.8Z"/><path class="cls-1" d="M63.53,52.65c0,.4,0,.79,0,1.19,0,.57,0,1.13.09,1.69s.07.95.13,1.42.11.9.17,1.35a89.33,89.33,0,0,1-10.54.61,92.51,92.51,0,0,1-11.48-.71l0-.49c-.07-.88-.11-1.74-.16-2.63,0-1.22-.07-2.45-.07-3.68A84.55,84.55,0,0,1,56.46,3.47h0A48.62,48.62,0,0,1,86.76,17.62,38,38,0,0,0,63.53,52.65Z"/><path class="cls-1" d="M86.11,87.4a48.74,48.74,0,0,1-28.62,13.4c-.31-.43-.62-.88-.92-1.32s-.6-.88-.89-1.33-.61-.92-.9-1.38-.55-.88-.83-1.34l-.82-1.38c-.31-.52-.61-1-.9-1.58-.43-.79-.86-1.59-1.27-2.39-.3-.57-.58-1.15-.86-1.73s-.47-1-.69-1.47-.45-1-.67-1.47a84.77,84.77,0,0,1-3.4-9.19c-.63-2.09-1.2-4.22-1.67-6.38a0,0,0,0,0,0,0c-.11-.52-.23-1.06-.34-1.59s-.21-1.09-.31-1.64c-.06-.35-.13-.71-.18-1.06s-.16-1-.23-1.45-.11-.69-.15-1-.13-.95-.19-1.43c-.13-1.13-.24-2.28-.34-3.41a92.51,92.51,0,0,0,11.48.71,89.33,89.33,0,0,0,10.54-.61.13.13,0,0,1,0,.06c.08.46.15.92.24,1.38s.18.91.29,1.36a33.9,33.9,0,0,0,1,3.65l.19.57c.32.91.68,1.79,1.06,2.67.13.3.27.61.42.91.5,1,1,2.07,1.64,3.07l.48.8c.28.46.58.9.88,1.35s.51.72.77,1.07l.14.19c.34.45.69.89,1,1.34.2.25.41.5.62.74a2.91,2.91,0,0,0,.24.27c.2.24.42.48.63.7a36,36,0,0,0,3.14,3c.3.26.6.52.91.76a31.89,31.89,0,0,0,3.06,2.23l.83.53.63.39.55.31h0c.3.18.6.34.92.51s.79.41,1.19.61Z"/><path class="cls-1" d="M24,50.83c0,1.09,0,2.17-.07,3.25a91.67,91.67,0,0,1-20-9.6A48.78,48.78,0,0,1,17.33,17.89,84.6,84.6,0,0,1,24,50.83Z"/><path class="cls-1" d="M23.89,54.08a84.1,84.1,0,0,1-7.37,31.56A49.06,49.06,0,0,1,3.89,44.48,91.67,91.67,0,0,0,23.89,54.08Z"/><path class="cls-1" d="M101.08,52.19a48.77,48.77,0,0,1-15,35.21l-1.25-.59c-.4-.2-.8-.4-1.19-.61s-.62-.33-.92-.51h0l-.55-.31L81.56,85l-.83-.53a31.89,31.89,0,0,1-3.06-2.23c-.31-.24-.61-.5-.91-.76a36,36,0,0,1-3.14-3c-.21-.22-.43-.46-.63-.7a2.91,2.91,0,0,1-.24-.27c-.21-.24-.42-.49-.62-.74-.36-.45-.71-.89-1-1.34l-.14-.19c-.26-.35-.52-.71-.77-1.07s-.6-.89-.88-1.35l-.48-.8c-.6-1-1.14-2-1.64-3.07-.15-.3-.29-.61-.42-.91-.38-.88-.74-1.76-1.06-2.67l-.19-.57a33.9,33.9,0,0,1-1-3.65c-.11-.45-.2-.9-.29-1.36S64,58.82,64,58.36a.13.13,0,0,0,0-.06,91.2,91.2,0,0,0,36.72-12.43A46.91,46.91,0,0,1,101.08,52.19Z"/><path class="cls-1" d="M100.66,45.87A91.2,91.2,0,0,1,63.94,58.3c-.06-.45-.12-.9-.17-1.35s-.09-.94-.13-1.42-.07-1.12-.09-1.69c0-.4,0-.79,0-1.19a38,38,0,0,1,23.23-35A48.71,48.71,0,0,1,100.66,45.87Z"/></g></g></svg>