<svg xmlns="http://www.w3.org/2000/svg" viewBox="0 0 85.68 113.19"><defs><style>.cls-1{fill:none;stroke:#f1623a;stroke-linecap:round;stroke-linejoin:round;stroke-width:6.8px;}</style></defs><g id="Layer_2" data-name="Layer 2"><g id="Capa_2" data-name="Capa 2"><polyline class="cls-1" points="56.56 109.79 56.56 62.63 26.52 62.63 26.52 109.79"/><polyline class="cls-1" points="29.96 62.63 31.18 47.84 22.84 31.18 23.05 24.92"/><polyline class="cls-1" points="64.27 24.62 82.28 32.98 75.7 47.77 59.84 40.72"/><path class="cls-1" d="M64,25.35c.12-.56.22-1.18.31-1.74A2.58,2.58,0,0,0,63,21L42.22,9.45a2.56,2.56,0,0,0-3.68,1.44l-.5,1.5-.61,1.43L31.18,28.4,11.73,20.07,3.4,6.18,17.29,3.4l19.44,8.33"/><path class="cls-1" d="M52.53,62.63c.87-.9.87-12,.87-12A34.28,34.28,0,0,0,59,42.29a25.87,25.87,0,0,0,1.14-2.7A126.21,126.21,0,0,0,64,25.35"/><line class="cls-1" x1="26.51" y1="76.25" x2="56.56" y2="76.25"/></g></g></svg>