<svg xmlns="http://www.w3.org/2000/svg" viewBox="0 0 120.19 101"><defs><style>.cls-1,.cls-2{fill:none;stroke:#f1623a;stroke-linejoin:round;stroke-width:6.8px;}.cls-1{stroke-linecap:round;}</style></defs><g id="Layer_2" data-name="Layer 2"><g id="Capa_2" data-name="Capa 2"><path class="cls-1" d="M27.72,97.6S5.45,71.91,3.74,68.49c-.77-1.54,0-29.12,0-39.4,0-3,3.43-8.56,8.56-8.56S22.58,24,22.58,29.09V54.78c0,1.72,12.81,16.12,12.81,16.12"/><path class="cls-1" d="M55.12,91.61V72.77c0-3.43-18.84-24-20.55-25.69s-3.42-3.43-8.56,0a11.22,11.22,0,0,0-3.53,4.46"/><path class="cls-1" d="M92.47,97.6s22.26-25.69,24-29.11c.76-1.54,0-29.12,0-39.4,0-3-3.43-8.56-8.57-8.56S97.6,24,97.6,29.09V54.78c0,1.72-12.67,16-12.67,16"/><path class="cls-1" d="M65.06,91.61V72.77c0-3.43,18.84-24,20.55-25.69s3.43-3.43,8.57,0a11.07,11.07,0,0,1,3.52,4.46"/><circle class="cls-2" cx="58.55" cy="18.82" r="15.42"/></g></g></svg>