<svg xmlns="http://www.w3.org/2000/svg" viewBox="0 0 120.19 89.73"><defs><style>.cls-1{fill:none;stroke:#f1623a;stroke-linecap:round;stroke-linejoin:round;stroke-width:6.8px;}</style></defs><g id="Layer_2" data-name="Layer 2"><g id="Capa_2" data-name="Capa 2"><path class="cls-1" d="M84,62.85a3.21,3.21,0,0,1-5,3.26,46.58,46.58,0,0,0-20.25-7.58C41.15,56.28,18,62.3,18,62.3S7.22,65.86,5,54.82L3.68,47.93C1.5,36.9,12.8,36.1,12.8,36.1s23.72-3.26,39.17-12A46.63,46.63,0,0,0,67.81,9.34a3.21,3.21,0,0,1,5.84,1.13Z"/><path class="cls-1" d="M18,62.35l4,20.37a4.48,4.48,0,0,0,5.26,3.53l7.93-1.57a4.31,4.31,0,0,0,3.39-5.06l-4-20.41"/><line class="cls-1" x1="36.11" y1="30.72" x2="41.58" y2="58.4"/><path class="cls-1" d="M94.81,53.67s7.68-10.44,5.13-21.39-14-16.94-14-16.94"/><path class="cls-1" d="M108.72,58.13s11-14.91,7.33-30.54S96,3.4,96,3.4"/></g></g></svg>